<svg width="59" height="29" viewBox="0 0 59 29" fill="none" xmlns="http://www.w3.org/2000/svg">
<rect width="59" height="29" rx="14.5" fill="#EE8100"/>
<path d="M20.5156 9.10156V19H19.0117V9.10156H20.5156ZM22.5254 19V9.10156H26.0527C28.3564 9.10156 29.4844 10.4824 29.4844 12.3145C29.4844 14.1396 28.3496 15.5273 26.0527 15.5273H24.0293V19H22.5254ZM24.0293 14.2422H25.9023C27.3584 14.249 27.9668 13.4287 27.9668 12.3145C27.9668 11.1934 27.3584 10.3936 25.9023 10.3867H24.0293V14.2422ZM39.6699 14.0508C39.6699 17.2158 37.7695 19.1367 35.2129 19.1367C32.6357 19.1367 30.7422 17.209 30.7422 14.0508C30.7422 10.8857 32.6357 8.96484 35.2129 8.96484C37.7695 8.96484 39.6699 10.8857 39.6699 14.0508ZM32.2324 14.0508C32.2393 16.457 33.5039 17.7627 35.2129 17.7559C36.9082 17.7627 38.1729 16.457 38.1797 14.0508C38.1729 11.6445 36.9082 10.3389 35.2129 10.3457C33.5039 10.3389 32.2393 11.6445 32.2324 14.0508Z" fill="white"/>
</svg>
